<?xml version="1.0" encoding="utf-8"?>
<!DOCTYPE svg PUBLIC "-//W3C//DTD SVG 1.1//EN" "http://www.w3.org/Graphics/SVG/1.1/DTD/svg11.dtd">
<svg version="1.1" baseProfile="full"
 xmlns="http://www.w3.org/2000/svg"
 xmlns:xlink="http://www.w3.org/1999/xlink"
 xmlns:ev="http://www.w3.org/2001/xml-events" 
  height="40px" 
  width="40px" 
>
<path fill="rgb( 255, 255, 255 )"
 d="M38,40 C38,40 2,40 2,40 C0.89499999999998,40 0,39.105 0,38 C0,38 0,2 0,2 C0,0.895 0.89499999999998,0 2,0 C2,0 38,0 38,0 C39.105,0 40,0.895 40,2 C40,2 40,38 40,38 C40,39.105 39.105,40 38,40 ZM39,1 C39,1 1,1 1,1 C1,1 1,39 1,39 C1,39 39,39 39,39 C39,39 39,1 39,1 ZM11,11 C11,15.971 15.029,20 20,20 C24.971,20 29,15.971 29,11 C29,11 29,10 29,10 C29,10 32,10 32,10 C32,10 32,11 32,11 C32,11 30,11 30,11 C30,16.523 25.5229999999999,21 20,21 C14.4770000000001,21 10,16.523 10,11 C10,11 8,11 8,11 C8,11 8,10 8,10 C8,10 11,10 11,10 C11,10 11,11 11,11 Z "/>
</svg>
