<?xml version="1.0" encoding="utf-8"?>
<!DOCTYPE svg PUBLIC "-//W3C//DTD SVG 1.1//EN" "http://www.w3.org/Graphics/SVG/1.1/DTD/svg11.dtd">
<svg version="1.1" baseProfile="full"
 xmlns="http://www.w3.org/2000/svg"
 xmlns:xlink="http://www.w3.org/1999/xlink"
 xmlns:ev="http://www.w3.org/2001/xml-events" 
  height="19px" 
  width="24px" 
>
<path fill="rgb( 102, 102, 102 )"
 d="M24,9 C24,9 23,10 23,10 C23,10 23,11 23,11 C23,11 23,19 23,19 C23,19 20,19 20,19 C20,19 20,16 20,16 C20,16 16,16 16,16 C16.0069999999999,16.041 16,17 16,17 C16,17 8,17 8,17 C8,17 8,16 8,16 C8,16 4,16 4,16 C4,16 4,18 4,18 C4,18.615 4,19 4,19 C4,19 1,19 1,19 C1,19 1,18 1,18 C1,18 1,11 1,11 C1,11 1,10 1,10 C1,10 0,9 0,9 C0,9 0,6 0,6 C0,6 1,6 1,6 C1,6 1.98500000000001,5.01499999999999 1.98500000000001,5.01499999999999 C1.98500000000001,5.01499999999999 0,5 0,5 C0,5 0,3 0,3 C0,3 2,3 2,3 C2,3 2,4 2,4 C2,4 3,1 3,1 C3,1 4,0 4,0 C4,0 20,0 20,0 C20,0 21,1 21,1 C21,1 22,4 22,4 C22,4 22,3 22,3 C22,3 24,3 24,3 C24,3 24,5.01499999999999 24,5.01499999999999 C24,5.01499999999999 23,5 23,5 C23,5 24,6 24,6 C24,6 24,9 24,9 ZM6,15 C6,15 18,15 18,15 C18,15 18,14 18,14 C18,14 6,14 6,14 C6,14 6,15 6,15 ZM18.011,7.999 C18.011,7.434 17.567,6.989 17.002,6.989 C16.438,6.989 15.992,7.434 15.992,7.999 C15.992,8.56399999999999 16.438,9.00899999999999 17.002,9.00899999999999 C17.567,9.00899999999999 18.011,8.56399999999999 18.011,7.999 ZM6.99800000000005,9.00899999999999 C7.53999999999996,9.00899999999999 8,8.56399999999999 8,7.999 C8,7.434 7.53999999999996,6.989 6.99800000000005,6.989 C6.45600000000002,6.989 5.99599999999998,7.434 5.99599999999998,7.999 C5.99599999999998,8.56399999999999 6.45600000000002,9.00899999999999 6.99800000000005,9.00899999999999 ZM2,7 C2,7 2,9 2,9 C2,9 5,9 5,9 C5,9 5,7 5,7 C5,7 2,7 2,7 ZM19,2 C19,2 5,2 5,2 C5,2 4,5 4,5 C4,5 20,5 20,5 C20,5 19,2 19,2 ZM22,7 C22,7 19,7 19,7 C19,7 19,9 19,9 C19,9 22,9 22,9 C22,9 22,7 22,7 Z "/>
</svg>
