<?xml version="1.0" encoding="utf-8"?>
<!DOCTYPE svg PUBLIC "-//W3C//DTD SVG 1.1//EN" "http://www.w3.org/Graphics/SVG/1.1/DTD/svg11.dtd">
<svg version="1.1" baseProfile="full"
 xmlns="http://www.w3.org/2000/svg"
 xmlns:xlink="http://www.w3.org/1999/xlink"
 xmlns:ev="http://www.w3.org/2001/xml-events" 
  height="28px" 
  width="14px" 
>
<path fill="rgb( 102, 102, 102 )"
 d="M12,8 C12,5.77799999999999 10.541,3.917 8.53699999999998,3.26599999999999 C8.822,2.91999999999999 9,2.482 9,2 C9,0.89599999999999 8.10399999999999,0 7,0 C5.89499999999998,0 5,0.89599999999999 5,2 C5,2.482 5.17899999999997,2.91999999999999 5.464,3.26599999999999 C3.459,3.917 2,5.77799999999999 2,8 C2,8 1,8 1,8 C1,8 1,10 1,10 C1,10 13,10 13,10 C13,10 13,8 13,8 C13,8 12,8 12,8 ZM0,11 C0,11 0,28 0,28 C0,28 14,28 14,28 C14,28 14,11 14,11 C14,11 0,11 0,11 ZM13,14 C13,14 8,14 8,14 C8,14 8,15 8,15 C8,15 13,15 13,15 C13,15 13,16 13,16 C13,16 13,17 13,17 C13,17 8,17 8,17 C8,17 8,18 8,18 C8,18 13,18 13,18 C13,18 13,20 13,20 C13,20 8,20 8,20 C8,20 8,21 8,21 C8,21 13,21 13,21 C13,21 13,23 13,23 C13,23 8,23 8,23 C8,23 8,24 8,24 C8,24 13,24 13,24 C13,24 13,27 13,27 C13,27 1,27 1,27 C1,27 1,16 1,16 C1,16 1,12 1,12 C1,12 13,12 13,12 C13,12 13,14 13,14 ZM12,16 C12,16 2,16 2,16 C2,16 2,26 2,26 C2,26 12,26 12,26 C12,26 12,24 12,24 C12,24 8,24 8,24 C8,24 8,23 8,23 C8,23 12,23 12,23 C12,23 12,21 12,21 C12,21 8,21 8,21 C8,21 8,20 8,20 C8,20 12,20 12,20 C12,20 12,18 12,18 C12,18 8,18 8,18 C8,18 8,17 8,17 C8,17 12,17 12,17 C12,17 12,16 12,16  "/>
</svg>
