<?xml version="1.0" encoding="utf-8"?>
<!DOCTYPE svg PUBLIC "-//W3C//DTD SVG 1.1//EN" "http://www.w3.org/Graphics/SVG/1.1/DTD/svg11.dtd">
<svg version="1.1" baseProfile="full"
 xmlns="http://www.w3.org/2000/svg"
 xmlns:xlink="http://www.w3.org/1999/xlink"
 xmlns:ev="http://www.w3.org/2001/xml-events" 
  height="21px" 
  width="28px" 
>
<path fill="rgb( 102, 102, 102 )"
 d="M0,21 C0,21 0,20 0,20 C0,20 28,20 28,20 C28,20 28,21 28,21 C28,21 0,21 0,21 ZM1,14 C1,14 1,11 1,11 C1,11 1.21600000000001,11 1.21600000000001,11 C1.21600000000001,11 2.84100000000001,11 2.84100000000001,11 C2.84100000000001,11 5.65899999999999,11 5.65899999999999,11 C5.65899999999999,11 7.31100000000004,11 7.31100000000004,11 C7.31100000000004,11 7.68899999999996,11 7.68899999999996,11 C7.68899999999996,11 9.34100000000001,11 9.34100000000001,11 C9.34100000000001,11 12.159,11 12.159,11 C12.159,11 13.811,11 13.811,11 C13.811,11 14.189,11 14.189,11 C14.189,11 15.841,11 15.841,11 C15.841,11 18.659,11 18.659,11 C18.659,11 20.311,11 20.311,11 C20.311,11 20.689,11 20.689,11 C20.689,11 22.341,11 22.341,11 C22.341,11 25.159,11 25.159,11 C25.159,11 26.784,11 26.784,11 C26.784,11 27,11 27,11 C27,11 27,14 27,14 C27,14 27,19 27,19 C27,19 1,19 1,19 C1,19 1,14 1,14 ZM21.138,10 C21.138,10 19.8630000000001,10 19.8630000000001,10 C19.8630000000001,10 14.638,10 14.638,10 C14.638,10 13.3630000000001,10 13.3630000000001,10 C13.3630000000001,10 8.13800000000003,10 8.13800000000003,10 C8.13800000000003,10 6.86300000000006,10 6.86300000000006,10 C6.86300000000006,10 1.63800000000003,10 1.63800000000003,10 C1.63800000000003,10 1,10 1,10 C1,10 1,8.084 1,8.084 C1,8.084 1,7 1,7 C1,7 27,7 27,7 C27,7 27,8.084 27,8.084 C27,8.084 27,10 27,10 C27,10 26.3630000000001,10 26.3630000000001,10 C26.3630000000001,10 21.138,10 21.138,10 ZM20,2 C20,2 22,2 22,2 C22,2 22,6 22,6 C22,6 20,6 20,6 C20,6 20,2 20,2 ZM20,0 C20,0 22,0 22,0 C22,0 22,1 22,1 C22,1 20,1 20,1 C20,1 20,0 20,0 ZM13,2 C13,2 15,2 15,2 C15,2 15,6 15,6 C15,6 13,6 13,6 C13,6 13,2 13,2 ZM13,0 C13,0 15,0 15,0 C15,0 15,1 15,1 C15,1 13,1 13,1 C13,1 13,0 13,0 ZM6,2 C6,2 8,2 8,2 C8,2 8,6 8,6 C8,6 6,6 6,6 C6,6 6,2 6,2 ZM6,0 C6,0 8,0 8,0 C8,0 8,1 8,1 C8,1 6,1 6,1 C6,1 6,0 6,0 Z "/>
</svg>
