<?xml version="1.0" encoding="utf-8"?>
<!DOCTYPE svg PUBLIC "-//W3C//DTD SVG 1.1//EN" "http://www.w3.org/Graphics/SVG/1.1/DTD/svg11.dtd">
<svg version="1.1" baseProfile="full"
 xmlns="http://www.w3.org/2000/svg"
 xmlns:xlink="http://www.w3.org/1999/xlink"
 xmlns:ev="http://www.w3.org/2001/xml-events" 
  height="17px" 
  width="26px" 
>
<path fill="rgb( 102, 102, 102 )"
 d="M6,1 C6,1 6,0 6,0 C6,0 2,0 2,0 C2,0 2,1 2,1 C2,1 0,1 0,1 C0,1 0,17 0,17 C0,17 26,17 26,17 C26,17 26,1 26,1 C26,1 6,1 6,1 ZM6,4 C6,4 2,4 2,4 C2,4 2,3 2,3 C2,3 6,3 6,3 C6,3 6,4 6,4 ZM18,14 C15.238,14 13,11.763 13,9 C13,6.239 15.238,4 18,4 C20.762,4 23,6.239 23,9 C23,11.763 20.762,14 18,14 ZM18,6 C16.344,6 15,7.34399999999999 15,9 C15,10.657 16.344,12 18,12 C19.656,12 21,10.657 21,9 C21,7.34399999999999 19.656,6 18,6  "/>
</svg>
