<?xml version="1.0" encoding="utf-8"?>
<!DOCTYPE svg PUBLIC "-//W3C//DTD SVG 1.1//EN" "http://www.w3.org/Graphics/SVG/1.1/DTD/svg11.dtd">
<svg version="1.1" baseProfile="full"
 xmlns="http://www.w3.org/2000/svg"
 xmlns:xlink="http://www.w3.org/1999/xlink"
 xmlns:ev="http://www.w3.org/2001/xml-events" 
  height="27px" 
  width="22px" 
>
<path fill="rgb( 102, 102, 102 )"
 d="M4,3 C4,3 4,1 4,1 C4,1 6,1 6,1 C6,1 6,3 6,3 C6,3 4,3 4,3 M7,0 C7,0 3,0 3,0 C3,0 3,4 3,4 C3,4 4,12 4,12 C4,12 6,12 6,12 C6,12 7,4 7,4 C7,4 7,0 7,0 M16,3 C16,3 16,1 16,1 C16,1 18,1 18,1 C18,1 18,3 18,3 C18,3 16,3 16,3 M19,0 C19,0 15,0 15,0 C15,0 15,4 15,4 C15,4 16,12 16,12 C16,12 18,12 18,12 C18,12 19,4 19,4 C19,4 19,0 19,0 M6,13 C6,13 5,13 5,13 C5,13 4,13 4,13 C4,13 0,16 0,16 C0,16 1,25 1,25 C1,25 4,27 4,27 C4,27 6,27 6,27 C6,27 9,25 9,25 C9,25 10,16 10,16 C10,16 6,13 6,13 ZM18,15 C18,15 18,13 18,13 C18,13 16,13 16,13 C16,13 16,15 16,15 C16,15 12,15 12,15 C12,15 12,17 12,17 C12,17 12,19 12,19 C12,19 13,27 13,27 C13,27 14,27 14,27 C14,27 14,17 14,17 C14,17 16,17 16,17 C16,17 16,19 16,19 C16,19 16.5,27 16.5,27 C16.5,27 17.5,27 17.5,27 C17.5,27 18,19 18,19 C18,19 18,17 18,17 C18,17 20,17 20,17 C20,17 20,27 20,27 C20,27 21,27 21,27 C21,27 22,19 22,19 C22,19 22,17 22,17 C22,17 22,15 22,15 C22,15 18,15 18,15 Z "/>
</svg>
