<?xml version="1.0" encoding="utf-8"?>
<!DOCTYPE svg PUBLIC "-//W3C//DTD SVG 1.1//EN" "http://www.w3.org/Graphics/SVG/1.1/DTD/svg11.dtd">
<svg version="1.1" baseProfile="full"
 xmlns="http://www.w3.org/2000/svg"
 xmlns:xlink="http://www.w3.org/1999/xlink"
 xmlns:ev="http://www.w3.org/2001/xml-events" 
  height="28px" 
  width="26px" 
>
<path fill="rgb( 102, 102, 102 )"
 d="M10,5 C10,6.65700000000001 11.343,8 13,8 C14.657,8 16,6.65700000000001 16,5 C16,4.64599999999999 15.931,4.31299999999999 15.816,4 C15.816,4 10.184,4 10.184,4 C10.069,4.31299999999999 10,4.64599999999999 10,5 ZM15,0 C15,0 11,0 11,0 C11,0 11,2 11,2 C11,2 8,2 8,2 C8,2 8,3 8,3 C8,3 18,3 18,3 C18,3 18,2 18,2 C18,2 15,2 15,2 C15,2 15,0 15,0 M12,27 C12,27 5,27 5,27 C5,27 5,28 5,28 C5,28 21,28 21,28 C21,28 21,27 21,27 C21,27 14,27 14,27 C14,27 14,20 14,20 C14,20 12,20 12,20 C12,20 12,27 12,27 ZM23.75,10 C23.75,10 24,9 24,9 C24,9 2,9 2,9 C2,9 2.25,10 2.25,10 C2.25,10 0,10 0,10 C0,10 0,11 0,11 C0,11 2.5,11 2.5,11 C2.5,11 3,13 3,13 C3,13 8,13 8,13 C8,13 8,19 8,19 C8,19 18,19 18,19 C18,19 18,13 18,13 C18,13 23,13 23,13 C23,13 23.5,11 23.5,11 C23.5,11 26,11 26,11 C26,11 26,10 26,10 C26,10 23.75,10 23.75,10 Z "/>
</svg>
