<?xml version="1.0" encoding="utf-8"?>
<!DOCTYPE svg PUBLIC "-//W3C//DTD SVG 1.1//EN" "http://www.w3.org/Graphics/SVG/1.1/DTD/svg11.dtd">
<svg version="1.1" baseProfile="full"
 xmlns="http://www.w3.org/2000/svg"
 xmlns:xlink="http://www.w3.org/1999/xlink"
 xmlns:ev="http://www.w3.org/2001/xml-events" 
  height="21px" 
  width="20px" 
>
<path fill="rgb( 102, 102, 102 )"
 d="M0,21 C0,21 0,19 0,19 C0,19 20,19 20,19 C20,19 20,21 20,21 C20,21 0,21 0,21 ZM0,10 C0,10 20,10 20,10 C20,10 20,18 20,18 C20,18 0,18 0,18 C0,18 0,10 0,10 ZM0,7 C0,7 20,7 20,7 C20,7 20,9 20,9 C20,9 0,9 0,9 C0,9 0,7 0,7 ZM7,6 C7,6 7,5 7,5 C7,5 13,5 13,5 C13,5 13,6 13,6 C13,6 7,6 7,6 ZM5,0 C5,0 15,0 15,0 C15,0 15,4 15,4 C15,4 5,4 5,4 C5,4 5,0 5,0 ZM13,3 C13,3 14,3 14,3 C14,3 14,1 14,1 C14,1 13,1 13,1 C13,1 13,3 13,3 Z "/>
</svg>
