<?xml version="1.0" encoding="utf-8"?>
<!DOCTYPE svg PUBLIC "-//W3C//DTD SVG 1.1//EN" "http://www.w3.org/Graphics/SVG/1.1/DTD/svg11.dtd">
<svg version="1.1" baseProfile="full"
 xmlns="http://www.w3.org/2000/svg"
 xmlns:xlink="http://www.w3.org/1999/xlink"
 xmlns:ev="http://www.w3.org/2001/xml-events" 
  height="23px" 
  width="26px" 
>
<path fill="rgb( 102, 102, 102 )"
 d="M0,0 C0,0 0,18 0,18 C0,18 26,18 26,18 C26,18 26,0 26,0 C26,0 0,0 0,0 M25,14 C25,14 1,14 1,14 C1,14 1,1 1,1 C1,1 25,1 25,1 C25,1 25,14 25,14 M16,22 C16,22 16,19 16,19 C16,19 10,19 10,19 C10,19 10,22 10,22 C10,22 7,22 7,22 C7,22 7,23 7,23 C7,23 19,23 19,23 C19,23 19,22 19,22 C19,22 16,22 16,22 Z "/>
</svg>
