<?xml version="1.0" encoding="utf-8"?>
<!DOCTYPE svg PUBLIC "-//W3C//DTD SVG 1.1//EN" "http://www.w3.org/Graphics/SVG/1.1/DTD/svg11.dtd">
<svg version="1.1" baseProfile="full"
 xmlns="http://www.w3.org/2000/svg"
 xmlns:xlink="http://www.w3.org/1999/xlink"
 xmlns:ev="http://www.w3.org/2001/xml-events" 
  height="28px" 
  width="26px" 
>
<path fill="rgb( 33, 150, 243 )"
 d="M18,28 C18,28 18,0 18,0 C18,0 26,0 26,0 C26,0 26,28 26,28 C26,28 18,28 18,28 ZM22,26 C23.104,26 24,25.104 24,24 C24,22.894 23.104,22 22,22 C20.895,22 20,22.894 20,24 C20,25.104 20.895,26 22,26 ZM25,3 C25,3 19,3 19,3 C19,3 19,10 19,10 C19,10 25,10 25,10 C25,10 25,3 25,3 ZM24,5 C24,5 20,5 20,5 C20,5 20,4 20,4 C20,4 24,4 24,4 C24,4 24,5 24,5 ZM24,7 C24,7 20,7 20,7 C20,7 20,6 20,6 C20,6 24,6 24,6 C24,6 24,7 24,7 ZM24,9 C24,9 20,9 20,9 C20,9 20,8 20,8 C20,8 24,8 24,8 C24,8 24,9 24,9 ZM9,0 C9,0 17,0 17,0 C17,0 17,28 17,28 C17,28 9,28 9,28 C9,28 9,0 9,0 ZM13,26 C14.104,26 15,25.104 15,24 C15,22.894 14.104,22 13,22 C11.895,22 11,22.894 11,24 C11,25.104 11.895,26 13,26 ZM10,10 C10,10 16,10 16,10 C16,10 16,3 16,3 C16,3 10,3 10,3 C10,3 10,10 10,10 ZM11,8 C11,8 15,8 15,8 C15,8 15,9 15,9 C15,9 11,9 11,9 C11,9 11,8 11,8 ZM11,6 C11,6 15,6 15,6 C15,6 15,7 15,7 C15,7 11,7 11,7 C11,7 11,6 11,6 ZM11,4 C11,4 15,4 15,4 C15,4 15,5 15,5 C15,5 11,5 11,5 C11,5 11,4 11,4 ZM0,0 C0,0 8,0 8,0 C8,0 8,28 8,28 C8,28 0,28 0,28 C0,28 0,0 0,0 ZM4,26 C5.10400000000004,26 6,25.104 6,24 C6,22.894 5.10400000000004,22 4,22 C2.89499999999998,22 2,22.894 2,24 C2,25.104 2.89499999999998,26 4,26 ZM1,10 C1,10 7,10 7,10 C7,10 7,3 7,3 C7,3 1,3 1,3 C1,3 1,10 1,10 ZM2,8 C2,8 6,8 6,8 C6,8 6,9 6,9 C6,9 2,9 2,9 C2,9 2,8 2,8 ZM2,6 C2,6 6,6 6,6 C6,6 6,7 6,7 C6,7 2,7 2,7 C2,7 2,6 2,6 ZM2,4 C2,4 6,4 6,4 C6,4 6,5 6,5 C6,5 2,5 2,5 C2,5 2,4 2,4 Z "/>
</svg>
