<?xml version="1.0" encoding="utf-8"?>
<!DOCTYPE svg PUBLIC "-//W3C//DTD SVG 1.1//EN" "http://www.w3.org/Graphics/SVG/1.1/DTD/svg11.dtd">
<svg version="1.1" baseProfile="full"
 xmlns="http://www.w3.org/2000/svg"
 xmlns:xlink="http://www.w3.org/1999/xlink"
 xmlns:ev="http://www.w3.org/2001/xml-events" 
  height="25px" 
  width="28px" 
>
<path fill="rgb( 102, 102, 102 )"
 d="M0,17 C0,17 0,16 0,16 C0,16 2,16 2,16 C2,16 2,13 2,13 C2,13 28,13 28,13 C28,13 28,17 28,17 C28,17 0,17 0,17 ZM4,0 C4,0 12,0 12,0 C12,0 13,4 18,4 C23,4 26,4 26,4 C26,4 28,4 28,6 C28,8 28,12 28,12 C28,12 4,12 4,12 C4,12 4,0 4,0 ZM10,19 C10,19 8,19 8,19 C8,19 8,25 8,25 C8,25 6,25 6,25 C6,25 6,19 6,19 C6,19 4,19 4,19 C4,19 4,18 4,18 C4,18 10,18 10,18 C10,18 10,19 10,19 ZM27,25 C27,25 25,25 25,25 C25,25 25,18 25,18 C25,18 27,18 27,18 C27,18 27,25 27,25 Z "/>
</svg>
