<?xml version="1.0" encoding="utf-8"?>
<!DOCTYPE svg PUBLIC "-//W3C//DTD SVG 1.1//EN" "http://www.w3.org/Graphics/SVG/1.1/DTD/svg11.dtd">
<svg version="1.1" baseProfile="full"
 xmlns="http://www.w3.org/2000/svg"
 xmlns:xlink="http://www.w3.org/1999/xlink"
 xmlns:ev="http://www.w3.org/2001/xml-events" 
  height="19px" 
  width="26px" 
>
<path fill="rgb( 102, 102, 102 )"
 d="M14,5 C14,5 14,4.5 14,4.5 C14,3.63499999999999 13.478,2 11.5,2 C11.5,2 6.5,2 6.5,2 C5.08900000000006,2 5.00300000000004,0.74799999999999 5,0.5 C5,0.5 5,0 5,0 C5,0 4,0 4,0 C4,0 4,0.5 4,0.5 C4,1.36500000000001 4.52300000000002,3 6.5,3 C6.5,3 11.5,3 11.5,3 C12.9109999999999,3 12.997,4.25200000000001 13,4.5 C13,4.5 13,5 13,5 C13,5 0,5 0,5 C0,5 0,19 0,19 C0,19 26,19 26,19 C26,19 26,5 26,5 C26,5 14,5 14,5 ZM9,13 C9,13 7,13 7,13 C7,13 7,15 7,15 C7,15 5,15 5,15 C5,15 5,13 5,13 C5,13 3,13 3,13 C3,13 3,11 3,11 C3,11 5,11 5,11 C5,11 5,9 5,9 C5,9 7,9 7,9 C7,9 7,11 7,11 C7,11 9,11 9,11 C9,11 9,13 9,13 ZM16,14 C14.896,14 14,13.105 14,12 C14,10.895 14.896,10 16,10 C17.105,10 18,10.895 18,12 C18,13.105 17.105,14 16,14 ZM21,14 C19.895,14 19,13.105 19,12 C19,10.895 19.895,10 21,10 C22.104,10 23,10.895 23,12 C23,13.105 22.104,14 21,14 Z "/>
</svg>
