<?xml version="1.0" encoding="utf-8"?>
<!DOCTYPE svg PUBLIC "-//W3C//DTD SVG 1.1//EN" "http://www.w3.org/Graphics/SVG/1.1/DTD/svg11.dtd">
<svg version="1.1" baseProfile="full"
 xmlns="http://www.w3.org/2000/svg"
 xmlns:xlink="http://www.w3.org/1999/xlink"
 xmlns:ev="http://www.w3.org/2001/xml-events" 
  height="28px" 
  width="14px" 
>
<path fill="rgb( 102, 102, 102 )"
 d="M14,27 C14,27 0,27 0,27 C0,27 0,28 0,28 C0,28 14,28 14,28 C14,28 14,27 14,27 ZM0,0 C0,0 0,16 0,16 C0,16 14,16 14,16 C14,16 14,0 14,0 C14,0 0,0 0,0 ZM0,26 C0,26 14,26 14,26 C14,26 14,17 14,17 C14,17 0,17 0,17 C0,17 0,26 0,26 M2,14 C2,14 1,14 1,14 C1,14 1,2 1,2 C1,2 2,2 2,2 C2,2 2,14 2,14 ZM2,2 C2,2 1,2 1,2 C1,2 1,14 1,14 C1,14 2,14 2,14 C2,14 2,2 2,2 M1,19 C1,19 2,19 2,19 C2,19 2,24 2,24 C2,24 1,24 1,24 C1,24 1,19 1,19 M2,19 C2,19 1,19 1,19 C1,19 1,24 1,24 C1,24 2,24 2,24 C2,24 2,19 2,19  "/>
</svg>
