<?xml version="1.0" encoding="utf-8"?>
<!DOCTYPE svg PUBLIC "-//W3C//DTD SVG 1.1//EN" "http://www.w3.org/Graphics/SVG/1.1/DTD/svg11.dtd">
<svg version="1.1" baseProfile="full"
 xmlns="http://www.w3.org/2000/svg"
 xmlns:xlink="http://www.w3.org/1999/xlink"
 xmlns:ev="http://www.w3.org/2001/xml-events" 
  height="41px" 
  width="41px" 
>
<path fill="rgb( 255, 255, 255 )"
 d="M39,10 C39,10 33,10 33,10 C31.895,10 31,9.104 31,8 C31,8 31,2 31,2 C31,1.57899999999999 31.1320000000001,1.18899999999999 31.354,0.866 C31.354,0.866 40.1379999999999,9.642 40.1379999999999,9.642 C39.8140000000001,9.867 39.423,10 39,10 ZM19.3199999999999,28.014 C19.3199999999999,28.014 14.6179999999999,23.336 14.6179999999999,23.336 C14.6110000000001,23.328 14.604,23.321 14.598,23.314 C14.598,23.314 13.3589999999999,22.082 13.3589999999999,22.082 C13.3409999999999,22.063 13.3230000000001,22.044 13.307,22.024 C13.2850000000001,22.003 13.2629999999999,21.984 13.241,21.962 C11.579,20.308 11.579,17.6 13.241,15.946 C14.0709999999999,15.12 15.171,14.701 16.2629999999999,14.701 C17.356,14.701 18.4549999999999,15.12 19.2860000000001,15.946 C19.318,15.978 19.345,16.008 19.374,16.038 C19.384,16.048 19.395,16.057 19.405,16.066 C19.405,16.066 19.992,16.651 19.992,16.651 C19.992,16.651 20.579,16.067 20.579,16.067 C20.597,16.05 20.616,16.032 20.635,16.016 C20.6569999999999,15.994 20.6790000000001,15.97 20.7,15.949 C22.3610000000001,14.296 25.0840000000001,14.296 26.7449999999999,15.949 C28.3920000000001,17.588 28.402,20.261 26.7840000000001,21.918 C25.223,23.469 20.663,28.014 20.663,28.014 C20.2919999999999,28.383 19.691,28.383 19.3199999999999,28.014 ZM26.7449999999999,21.964 C26.76,21.95 26.769,21.932 26.7840000000001,21.918 C27.4069999999999,21.298 27.567,21.142 26.7449999999999,21.964 ZM1,40 C1,40 39,40 39,40 C39,40 39,11 39,11 C39,11 40,11 40,11 C40,11 40,39 40,39 C40,40.105 39.105,41 38,41 C38,41 2,41 2,41 C0.89499999999998,41 0,40.105 0,39 C0,39 0,3 0,3 C0,1.895 0.89499999999998,1 2,1 C2,1 30,1 30,1 C30,1 30,2 30,2 C30,2 1,2 1,2 C1,2 1,40 1,40 Z "/>
</svg>
