<?xml version="1.0" encoding="utf-8"?>
<!DOCTYPE svg PUBLIC "-//W3C//DTD SVG 1.1//EN" "http://www.w3.org/Graphics/SVG/1.1/DTD/svg11.dtd">
<svg version="1.1" baseProfile="full"
 xmlns="http://www.w3.org/2000/svg"
 xmlns:xlink="http://www.w3.org/1999/xlink"
 xmlns:ev="http://www.w3.org/2001/xml-events" 
  height="28px" 
  width="128px" 
>
<path opacity="0.8" fill="rgb( 255, 255, 255 )"
 d="M126.683,15.265 C126.455,15.492 126.178,15.605 125.852,15.605 C125.852,15.605 114.639,15.605 114.639,15.605 C114.813,16.855 115.351,17.852 116.253,18.595 C117.154,19.339 118.257,19.711 119.561,19.711 C120.452,19.711 121.191,19.593 121.777,19.355 C122.364,19.118 122.918,18.709 123.44,18.127 C123.722,17.825 124.048,17.631 124.418,17.545 C124.787,17.459 125.124,17.524 125.428,17.739 C125.732,17.976 125.906,18.278 125.95,18.644 C125.993,19.011 125.906,19.323 125.689,19.581 C124.233,21.436 122.157,22.362 119.463,22.362 C117.247,22.362 115.394,21.63 113.906,20.163 C112.417,18.698 111.673,16.791 111.673,14.441 C111.673,12.092 112.417,10.201 113.906,8.767 C115.394,7.334 117.247,6.617 119.463,6.617 C121.658,6.617 123.467,7.334 124.89,8.767 C126.313,10.201 127.025,12.092 127.025,14.441 C127.025,14.764 126.911,15.039 126.683,15.265 ZM122.576,10.351 C121.739,9.629 120.702,9.268 119.463,9.268 C118.181,9.268 117.1,9.629 116.22,10.351 C115.34,11.073 114.813,12.06 114.639,13.309 C114.639,13.309 124.092,13.309 124.092,13.309 C123.917,12.06 123.412,11.073 122.576,10.351 ZM107.215,22.2 C106.802,22.2 106.454,22.055 106.172,21.764 C105.889,21.473 105.748,21.123 105.748,20.713 C105.748,20.713 105.748,13.503 105.748,13.503 C105.748,12.254 105.449,11.273 104.852,10.561 C104.254,9.84999999999999 103.434,9.494 102.391,9.494 C101.196,9.494 100.18,9.85599999999999 99.343,10.577 C98.507,11.3 98.088,12.404 98.088,13.891 C98.088,13.891 98.088,20.713 98.088,20.713 C98.088,21.123 97.942,21.473 97.648,21.764 C97.355,22.055 97.002,22.2 96.589,22.2 C96.176,22.2 95.828,22.055 95.546,21.764 C95.263,21.473 95.122,21.123 95.122,20.713 C95.122,20.713 95.122,8.26600000000001 95.122,8.26600000000001 C95.122,7.857 95.263,7.506 95.546,7.215 C95.828,6.92400000000001 96.176,6.779 96.589,6.779 C97.002,6.779 97.355,6.92400000000001 97.648,7.215 C97.942,7.506 98.088,7.857 98.088,8.26600000000001 C98.088,8.26600000000001 98.088,9.203 98.088,9.203 C98.523,8.363 99.191,7.72199999999999 100.093,7.28 C100.994,6.83799999999999 101.913,6.617 102.847,6.617 C104.738,6.617 106.188,7.199 107.199,8.363 C108.209,9.527 108.714,11.176 108.714,13.309 C108.714,13.309 108.714,20.713 108.714,20.713 C108.714,21.123 108.567,21.473 108.274,21.764 C107.981,22.055 107.627,22.2 107.215,22.2 ZM84.106,22.362 C81.889,22.362 80.01,21.63 78.467,20.163 C76.924,18.698 76.153,16.791 76.153,14.441 C76.153,12.113 76.919,10.227 78.451,8.783 C79.983,7.339 81.868,6.617 84.106,6.617 C86.344,6.617 88.234,7.339 89.777,8.783 C91.32,10.227 92.091,12.113 92.091,14.441 C92.091,16.769 91.314,18.671 89.761,20.147 C88.207,21.624 86.322,22.362 84.106,22.362 ZM87.675,10.852 C86.708,9.947 85.518,9.494 84.106,9.494 C82.693,9.494 81.503,9.947 80.537,10.852 C79.57,11.758 79.086,12.954 79.086,14.441 C79.086,15.95 79.57,17.173 80.537,18.11 C81.503,19.048 82.693,19.517 84.106,19.517 C85.518,19.517 86.708,19.048 87.675,18.11 C88.641,17.173 89.125,15.95 89.125,14.441 C89.125,12.954 88.641,11.758 87.675,10.852 ZM71.753,22.2 C71.34,22.2 70.992,22.055 70.71,21.764 C70.427,21.473 70.286,21.123 70.286,20.713 C70.286,20.713 70.286,13.503 70.286,13.503 C70.286,12.275 69.955,11.3 69.292,10.577 C68.629,9.85599999999999 67.765,9.494 66.701,9.494 C65.483,9.494 64.408,9.85599999999999 63.474,10.577 C62.539,11.3 62.072,12.404 62.072,13.891 C62.072,13.891 62.072,20.713 62.072,20.713 C62.072,21.123 61.926,21.473 61.632,21.764 C61.339,22.055 60.985,22.2 60.573,22.2 C60.16,22.2 59.812,22.055 59.53,21.764 C59.247,21.473 59.106,21.123 59.106,20.713 C59.106,20.713 59.106,2.414 59.106,2.414 C59.106,2.005 59.247,1.655 59.53,1.364 C59.812,1.07299999999999 60.16,0.92700000000001 60.573,0.92700000000001 C60.985,0.92700000000001 61.339,1.07299999999999 61.632,1.364 C61.926,1.655 62.072,2.005 62.072,2.414 C62.072,2.414 62.072,9.203 62.072,9.203 C62.485,8.363 63.186,7.72199999999999 64.175,7.28 C65.163,6.83799999999999 66.135,6.617 67.092,6.617 C69.004,6.617 70.514,7.205 71.622,8.379 C72.73,9.554 73.273,11.197 73.252,13.309 C73.252,13.309 73.252,20.713 73.252,20.713 C73.252,21.123 73.105,21.473 72.812,21.764 C72.519,22.055 72.165,22.2 71.753,22.2 ZM48.383,22.362 C47.272,22.362 46.227,22.141 45.247,21.699 C44.266,21.258 43.537,20.616 43.057,19.775 C43.057,19.775 43.057,25.627 43.057,25.627 C43.057,26.036 42.911,26.387 42.617,26.678 C42.324,26.969 41.971,27.114 41.558,27.114 C41.145,27.114 40.797,26.969 40.515,26.678 C40.232,26.387 40.091,26.036 40.091,25.627 C40.091,25.627 40.091,8.26600000000001 40.091,8.26600000000001 C40.091,7.857 40.232,7.506 40.515,7.215 C40.797,6.92400000000001 41.145,6.779 41.558,6.779 C41.971,6.779 42.324,6.92400000000001 42.617,7.215 C42.911,7.506 43.057,7.857 43.057,8.26600000000001 C43.057,8.26600000000001 43.063,9.3 43.063,9.3 C43.564,8.45999999999999 44.305,7.803 45.284,7.328 C46.264,6.854 47.298,6.617 48.387,6.617 C50.521,6.617 52.328,7.34999999999999 53.809,8.815 C55.289,10.281 56.03,12.189 56.03,14.538 C56.03,16.866 55.294,18.752 53.824,20.196 C52.353,21.64 50.54,22.362 48.383,22.362 ZM51.581,10.917 C50.635,9.96899999999999 49.467,9.494 48.077,9.494 C46.686,9.494 45.507,9.953 44.54,10.868 C43.573,11.785 43.09,13.018 43.09,14.57 C43.09,16.101 43.59,17.302 44.589,18.175 C45.588,19.048 46.751,19.485 48.077,19.485 C49.489,19.485 50.662,19.032 51.597,18.127 C52.531,17.221 52.998,16.036 52.998,14.57 C52.998,13.083 52.526,11.866 51.581,10.917 ZM34.658,22.2 C34.241,22.2 33.884,22.055 33.587,21.764 C33.291,21.473 33.143,21.123 33.143,20.713 C33.143,20.713 33.143,19.711 33.143,19.711 C32.643,20.551 31.904,21.204 30.926,21.667 C29.948,22.13 28.916,22.362 27.83,22.362 C25.679,22.362 23.853,21.63 22.354,20.163 C20.855,18.698 20.105,16.801 20.105,14.473 C20.105,12.124 20.844,10.227 22.321,8.783 C23.799,7.339 25.624,6.617 27.797,6.617 C28.949,6.617 30.002,6.83799999999999 30.959,7.28 C31.915,7.72199999999999 32.643,8.363 33.143,9.203 C33.143,9.203 33.143,2.414 33.143,2.414 C33.143,2.005 33.291,1.655 33.587,1.364 C33.884,1.07299999999999 34.241,0.92700000000001 34.658,0.92700000000001 C35.076,0.92700000000001 35.427,1.07299999999999 35.713,1.364 C35.998,1.655 36.141,2.005 36.141,2.414 C36.141,2.414 36.141,20.713 36.141,20.713 C36.141,21.123 35.998,21.473 35.713,21.764 C35.427,22.055 35.076,22.2 34.658,22.2 ZM31.578,10.82 C30.557,9.937 29.383,9.494 28.058,9.494 C26.667,9.494 25.499,9.953 24.554,10.868 C23.609,11.785 23.136,12.976 23.136,14.441 C23.136,15.907 23.609,17.114 24.554,18.062 C25.499,19.011 26.667,19.485 28.058,19.485 C29.47,19.485 30.666,19.032 31.643,18.127 C32.621,17.221 33.11,15.993 33.11,14.441 C33.11,12.911 32.599,11.704 31.578,10.82 ZM15.529,22.2 C15.111,22.2 14.759,22.055 14.474,21.764 C14.189,21.473 14.046,21.123 14.046,20.713 C14.046,20.713 14.046,19.711 14.046,19.711 C13.546,20.551 12.807,21.204 11.83,21.667 C10.852,22.13 9.809,22.362 8.70099999999999,22.362 C6.54900000000001,22.362 4.72399999999999,21.63 3.22499999999999,20.163 C1.72499999999999,18.698 0.976,16.801 0.976,14.473 C0.976,12.124 1.72499999999999,10.227 3.22499999999999,8.783 C4.72399999999999,7.339 6.54900000000001,6.617 8.70099999999999,6.617 C9.809,6.617 10.857,6.843 11.846,7.29600000000001 C12.834,7.749 13.568,8.38500000000001 14.046,9.203 C14.046,9.203 14.046,8.26600000000001 14.046,8.26600000000001 C14.046,7.857 14.189,7.506 14.474,7.215 C14.759,6.92400000000001 15.111,6.779 15.529,6.779 C15.946,6.779 16.303,6.92400000000001 16.6,7.215 C16.896,7.506 17.045,7.857 17.045,8.26600000000001 C17.045,8.26600000000001 17.045,20.713 17.045,20.713 C17.045,21.123 16.896,21.473 16.6,21.764 C16.303,22.055 15.946,22.2 15.529,22.2 ZM12.482,10.82 C11.46,9.937 10.287,9.494 8.96100000000001,9.494 C7.54900000000001,9.494 6.37,9.953 5.42500000000001,10.868 C4.47999999999999,11.785 4.00700000000001,12.976 4.00700000000001,14.441 C4.00700000000001,15.907 4.48500000000001,17.114 5.441,18.062 C6.39699999999999,19.011 7.571,19.485 8.96100000000001,19.485 C10.374,19.485 11.569,19.032 12.547,18.127 C13.524,17.221 14.013,15.993 14.013,14.441 C14.013,12.911 13.503,11.704 12.482,10.82 Z "/>
</svg>
